<svg xmlns="http://www.w3.org/2000/svg" viewBox="0 0 512 512">
  <defs>
    <linearGradient id="bg" x1="64" x2="448" y1="40" y2="472" gradientUnits="userSpaceOnUse">
      <stop offset="0" stop-color="#0a1530"/>
      <stop offset="0.58" stop-color="#391c57"/>
      <stop offset="1" stop-color="#793400"/>
    </linearGradient>
    <linearGradient id="panel" x1="132" x2="392" y1="112" y2="404" gradientUnits="userSpaceOnUse">
      <stop offset="0" stop-color="#ffffff"/>
      <stop offset="1" stop-color="#f8f5e8"/>
    </linearGradient>
    <filter id="shadow" x="-20%" y="-20%" width="140%" height="140%" color-interpolation-filters="sRGB">
      <feDropShadow dx="0" dy="14" stdDeviation="10" flood-color="#070f24" flood-opacity="0.34"/>
    </filter>
  </defs>
  <rect width="512" height="512" rx="108" fill="url(#bg)"/>
  <path d="M88 124h336v264H88z" fill="#070f24" opacity=".34"/>
  <path d="M76 112h336v264H76z" fill="url(#panel)" stroke="#000000" stroke-width="10" filter="url(#shadow)"/>
  <path d="M110 160h74v74h-74zM110 278h74v42h-74z" fill="#5645d4"/>
  <path d="M184 160h62c57 0 91 27 91 72 0 31-16 53-43 64l49 74h-70l-41-64h-48v64h-74V160h74v88h48c20 0 31-9 31-25s-11-24-31-24h-48z" fill="#0a1530"/>
  <circle cx="336" cy="184" r="19" fill="#dd5b00" stroke="#000000" stroke-width="8"/>
  <circle cx="382" cy="254" r="19" fill="#2a9d99" stroke="#000000" stroke-width="8"/>
  <circle cx="329" cy="328" r="19" fill="#ff64c8" stroke="#000000" stroke-width="8"/>
  <path d="M336 184 382 254 329 328 246 306" fill="none" stroke="#0a1530" stroke-linecap="round" stroke-linejoin="round" stroke-width="12"/>
  <circle cx="128" cy="328" r="18" fill="#dd5b00"/>
  <path d="M128 246c45 0 82 37 82 82" fill="none" stroke="#dd5b00" stroke-linecap="round" stroke-width="26"/>
  <path d="M128 190c76 0 138 62 138 138" fill="none" stroke="#dd5b00" stroke-linecap="round" stroke-width="26"/>
  <path d="M76 112h336v52H76z" fill="#0a1530"/>
  <circle cx="112" cy="138" r="9" fill="#ff64c8"/>
  <circle cx="142" cy="138" r="9" fill="#f5d75e"/>
  <circle cx="172" cy="138" r="9" fill="#2a9d99"/>
  <path d="M76 376h336v24H76z" fill="#000000" opacity=".18"/>
</svg>
